# xmcd
#
# Track frame offsets:
#	182
#	9535
#	23257
#	35115
#	54662
#	68820
#	73760
#	85767
#	101270
#	118057
#	134115
#
# Disc length: 1947 seconds
#
# Revision: 4
# Processed by: cddbd v1.5.2PL0 Copyright (c) Steve Scherf et al.
# Submitted via: audiograbber 1.83.01
#
DISCID=9307990b
DTITLE=Varous - Christmas In The Country (Disk 2)
DYEAR=1995
DGENRE=Christmas
TTITLE0=Randy Travis - Santa Claus Is Coming To Town
TTITLE1=Mark O'Connor - Sleigh Ride
TTITLE2=Michael Martin Murphy - Two Step 'Round The Christmas Tree
TTITLE3=Texas Tornados - Rudolph The Red-Nosed Reindeer
TTITLE4=The Froester Sisters - Silent Night
TTITLE5=Nashville Chlidren's Chorus - Jolly Ol' St Nicholas
TTITLE6=Eddy Raven - Blue Christmas
TTITLE7=The A-Strings with Glen Campbell - Brightest And Best
TTITLE8=Emmylou Harris - O Little Town Of Bethlehem
TTITLE9=The Nitty Gritty Dirt Dand - Colorado Christmas
TTITLE10=Dwight Yoakam - Santa Claus Is Coming To Town
EXTD=
EXTT0=Randy Travis
EXTT1=Mark O'Connor
EXTT2=Michael Martin Murphey
EXTT3=Texas Tornados
EXTT4=The Forester Sisters
EXTT5=Nashville Children's Chorus
EXTT6=Eddy Raven
EXTT7=The A-Strings With Glen Campbell
EXTT8=Emmylou Harris
EXTT9=The Nitty Gritty Dirt Band
EXTT10=Dwight Yoakam
PLAYORDER=
